<?xml version="1.0" standalone="no"?>
<!DOCTYPE svg PUBLIC "-//W3C//DTD SVG 20010904//EN"
 "http://www.w3.org/TR/2001/REC-SVG-20010904/DTD/svg10.dtd">
<svg version="1.0" xmlns="http://www.w3.org/2000/svg"
 width="1024.000000pt" height="1024.000000pt" viewBox="0 0 1024.000000 1024.000000"
 preserveAspectRatio="xMidYMid meet">

<g transform="translate(0.000000,1024.000000) scale(0.100000,-0.100000)"
fill="#000000" stroke="none">
<path d="M5187 9704 c-1 -2 -27 -5 -57 -9 -61 -6 -222 -46 -315 -76 -78 -26
-325 -147 -325 -160 0 -5 17 2 38 15 42 26 160 81 263 121 187 72 439 114 516
84 23 -8 26 -8 15 3 -10 10 -128 29 -135 22z"/>
<path d="M5961 9669 c-18 -22 -31 -42 -28 -45 2 -2 15 10 29 28 50 68 50 78
-1 17z"/>
<path d="M4215 9645 c-148 -50 -182 -63 -265 -102 -179 -84 -411 -231 -535
-339 -324 -281 -592 -715 -618 -999 -3 -33 -9 -106 -13 -162 -3 -57 -11 -103
-16 -103 -17 0 -103 -42 -158 -78 -84 -54 -153 -114 -287 -248 -124 -126 -178
-192 -300 -374 -84 -126 -115 -185 -111 -212 2 -16 13 -6 50 44 78 106 174
192 265 238 45 23 87 40 93 38 6 -2 -6 -27 -25 -57 -105 -159 -178 -317 -200
-437 -18 -91 -20 -284 -4 -284 7 0 9 12 7 31 -4 28 -1 56 17 159 3 19 8 51 12
70 14 80 157 410 171 395 3 -2 0 -17 -6 -32 -12 -31 -47 -200 -58 -278 -22
-154 -12 -372 22 -503 17 -64 90 -222 103 -222 5 0 16 40 25 88 16 90 52 192
67 192 4 0 11 -17 14 -37 26 -151 54 -260 102 -403 30 -91 60 -169 65 -175 7
-7 9 18 6 72 -2 45 -1 80 1 77 10 -10 127 -231 185 -350 36 -73 76 -150 90
-173 32 -50 32 -53 2 -45 -14 3 -33 1 -43 -4 -16 -9 -14 -11 12 -17 17 -4 71
-20 120 -37 50 -17 111 -38 136 -46 41 -13 53 -25 97 -91 27 -42 61 -97 76
-123 15 -27 32 -48 39 -48 7 0 13 -9 14 -19 1 -15 50 -101 57 -101 0 0 1 12 2
28 0 15 3 55 6 89 5 47 3 63 -8 67 -10 4 -11 11 -4 31 15 40 41 157 35 163 -5
6 -15 -18 -46 -118 -12 -41 -26 -79 -30 -84 -12 -14 29 134 56 203 29 75 30
85 12 143 -33 105 -110 429 -126 533 -6 33 -17 85 -26 115 -9 30 -16 66 -16
79 1 13 -6 49 -14 81 -22 84 -19 131 14 228 17 48 46 143 66 212 20 69 53 172
73 230 34 101 35 111 40 282 4 157 6 179 23 194 24 21 24 26 1 52 -14 16 -20
45 -25 115 -3 51 -9 102 -13 112 -12 29 11 15 114 -70 169 -140 215 -195 252
-299 33 -93 52 -95 62 -6 12 108 15 191 7 196 -4 2 -8 21 -7 42 0 20 -7 58
-17 85 -9 26 -14 51 -11 56 3 5 -21 49 -53 97 -33 49 -58 90 -57 92 2 1 15 -2
29 -7 54 -21 335 -60 432 -60 176 -1 347 38 483 111 87 46 202 125 202 138 0
4 -50 8 -110 8 -125 0 -410 22 -410 32 0 4 35 10 78 13 83 6 252 57 338 100
27 14 74 42 104 62 30 21 60 38 67 38 7 0 10 4 7 9 -12 19 28 18 127 -2 57
-12 115 -23 127 -24 68 -8 238 -160 322 -290 44 -67 52 -68 19 -3 -26 51 -137
186 -187 227 -20 16 -34 30 -30 30 15 0 158 -55 224 -87 40 -18 106 -58 147
-88 69 -49 77 -52 82 -34 9 26 -36 101 -96 161 -43 43 -45 47 -23 46 13 -1 24
-6 24 -10 0 -4 9 -8 20 -8 11 0 20 4 20 9 0 7 47 13 180 22 56 4 211 -24 255
-46 135 -66 436 -391 568 -611 120 -200 146 -257 232 -489 65 -174 117 -416
130 -595 7 -110 10 -515 2 -526 -7 -13 10 -301 22 -346 5 -21 6 -38 2 -39 -3
0 3 -4 14 -9 18 -8 18 -9 2 -9 -12 -1 -15 -5 -11 -13 4 -7 7 -47 6 -89 -2 -44
2 -80 8 -84 6 -4 10 9 11 32 0 21 3 86 5 146 4 82 2 107 -8 107 -9 0 -10 3 -2
8 6 4 14 43 16 87 4 65 2 86 -13 114 -15 29 -17 58 -16 245 l3 211 43 120 c42
118 43 122 48 283 5 134 3 162 -8 162 -9 1 -8 4 4 11 14 8 17 18 12 40 -4 16
-2 29 3 29 9 0 18 -23 28 -74 9 -46 14 -23 9 44 -2 40 -11 83 -19 95 -12 19
-12 22 1 22 16 0 59 -80 93 -174 12 -35 24 -63 25 -63 7 0 -7 242 -17 270 -20
62 -60 140 -69 134 -5 -3 -6 1 -3 9 3 8 -2 21 -10 30 -12 11 -13 16 -3 20 9 3
9 7 0 18 -10 12 -8 15 8 16 23 2 197 -167 248 -240 62 -91 80 -45 36 97 -33
108 -48 129 -41 56 3 -32 14 -66 26 -82 12 -16 18 -33 15 -38 -9 -14 -35 -12
-35 2 0 6 -63 74 -140 150 -77 76 -141 143 -141 148 -1 9 -3 18 -8 35 0 2 -13
0 -27 -6 -23 -8 -25 -7 -15 5 6 7 11 18 10 22 -4 22 2 33 15 28 8 -3 17 -1 21
5 7 13 104 14 124 2 7 -5 23 -25 35 -44 36 -61 96 -146 108 -153 15 -9 4 34
-29 111 -14 33 -30 75 -37 93 -6 17 -14 32 -18 32 -12 0 -26 33 -49 116 -11
43 -22 84 -23 91 -1 7 -5 16 -9 19 -4 4 -7 18 -7 31 0 12 -4 23 -9 23 -4 0 -6
11 -3 25 2 14 8 25 12 25 10 0 150 -139 150 -150 0 -5 11 -20 24 -33 13 -14
42 -53 63 -88 34 -57 73 -89 73 -60 0 19 -169 233 -224 284 -11 9 -17 19 -14
22 3 3 37 -19 76 -50 72 -56 149 -98 164 -89 11 7 10 22 -3 69 -7 22 -14 34
-16 28 -3 -7 -13 -13 -24 -13 -17 0 -18 -3 -9 -20 6 -11 7 -20 2 -20 -10 0
-65 36 -97 63 -48 40 -180 136 -204 148 -14 8 -37 21 -50 31 -28 21 -49 13
-27 -10 14 -16 16 -21 16 -39 0 -5 5 -1 10 7 7 11 10 11 10 2 0 -7 6 -10 13
-7 6 4 4 0 -5 -8 -10 -8 -18 -20 -18 -26 0 -7 -4 -9 -10 -6 -5 3 -10 1 -10 -4
0 -6 7 -11 16 -11 14 0 41 -55 36 -72 -1 -4 6 -4 15 -1 12 5 14 3 8 -7 -5 -8
-1 -18 10 -27 15 -10 16 -16 7 -25 -9 -9 -12 -8 -12 6 0 9 -5 14 -10 11 -6 -4
-8 -11 -5 -16 4 -5 1 -9 -5 -9 -8 0 -9 -7 -5 -17 12 -31 10 -38 -7 -35 -13 2
-16 -2 -12 -13 4 -10 13 -13 27 -9 17 5 19 3 13 -21 -4 -16 -2 -33 5 -41 6 -7
9 -19 6 -26 -4 -8 -6 -7 -6 5 -1 20 -17 23 -25 5 -3 -7 -3 -2 0 12 5 20 4 23
-7 13 -16 -16 -21 -43 -8 -43 6 0 7 -5 4 -11 -4 -6 -9 -8 -12 -5 -3 3 -13 1
-22 -3 -11 -6 -23 -4 -36 5 -19 14 -18 15 10 10 28 -5 30 -3 32 29 3 37 -17
65 -46 65 -10 0 -26 11 -36 24 -10 13 -25 22 -34 20 -9 -2 -2 3 14 11 l30 15
-40 -5 c-22 -2 -32 -2 -22 1 16 5 25 25 10 23 -21 -3 -34 2 -28 11 4 6 12 7
18 3 7 -3 4 3 -5 14 -25 27 -22 34 10 27 21 -4 24 -3 12 5 -11 8 -12 11 -2 11
7 0 11 4 8 9 -6 9 22 72 37 82 15 11 -3 48 -31 65 -24 13 -24 15 -4 11 12 -3
22 -1 22 4 0 5 -8 9 -17 9 -14 0 -15 2 -5 9 26 16 -9 60 -85 106 -77 47 -93
54 -74 32 6 -8 7 -18 3 -22 -4 -5 -1 -5 5 -1 7 4 22 -2 34 -13 12 -11 29 -17
38 -14 13 4 13 3 2 -5 -8 -6 -12 -19 -8 -31 6 -23 -8 -38 -18 -21 -4 7 -16 1
-30 -14 -14 -15 -31 -24 -43 -21 -15 3 -18 -1 -14 -21 2 -13 5 -24 7 -24 1 0
15 13 32 29 41 38 92 38 111 -1 9 -20 21 -28 39 -28 23 0 25 -3 19 -32 -6 -30
-20 -47 -38 -48 -12 0 -9 33 3 50 9 13 10 12 5 -2 -7 -22 9 -24 17 -3 10 24
-15 30 -34 7 -21 -26 -27 -27 -50 -6 -16 15 -20 15 -50 0 -40 -20 -49 -20 -49
-1 0 8 5 15 11 15 5 0 7 -4 4 -10 -3 -5 -1 -10 4 -10 6 0 11 7 11 16 0 12 -6
15 -25 10 -20 -5 -25 -3 -25 14 0 11 -5 20 -11 20 -6 0 -8 -9 -4 -20 6 -20 6
-20 -29 -4 -19 10 -32 22 -29 27 3 6 1 7 -5 3 -6 -4 -28 0 -48 9 -28 11 -35
19 -31 34 6 25 -23 38 -39 17 -16 -22 -30 -20 -48 6 -9 12 -16 17 -16 10 0 -6
-7 -12 -15 -12 -8 0 -15 6 -15 13 0 14 65 42 78 33 4 -2 9 5 9 17 1 12 -1 17
-5 11 -10 -15 -88 -44 -96 -36 -4 3 -4 -1 -1 -10 5 -12 1 -14 -18 -11 -20 4
-23 9 -19 30 3 18 1 24 -7 19 -7 -5 -11 2 -11 18 0 16 -6 26 -15 26 -8 0 -15
5 -15 11 0 5 5 7 10 4 6 -3 10 -1 10 6 0 9 3 9 14 0 8 -7 13 -21 11 -31 -2
-12 3 -21 16 -25 11 -4 16 -11 12 -18 -4 -7 1 -6 10 2 24 19 21 30 -5 24 -19
-4 -20 -3 -8 6 10 7 11 11 3 11 -7 0 -13 5 -13 10 0 6 -9 20 -20 32 -11 12
-20 16 -20 10 0 -8 -9 -10 -25 -6 -31 8 -33 -8 -2 -33 12 -10 23 -26 23 -35 3
-36 4 -39 17 -32 6 4 8 3 4 -1 -12 -14 -52 -16 -78 -6 l-24 10 27 0 c50 2 39
31 -12 31 -9 0 -23 7 -30 15 -11 13 -8 15 21 15 26 0 30 -3 19 -10 -8 -5 -10
-10 -4 -10 21 0 24 14 7 32 -28 32 -25 52 10 66 18 8 44 20 59 28 32 17 64 18
72 2 4 -9 8 -10 11 -2 4 8 17 9 43 2 20 -5 51 -11 67 -14 17 -3 35 -12 41 -20
13 -16 29 -19 19 -4 -4 6 10 3 29 -7 20 -9 36 -24 37 -32 0 -10 2 -12 6 -4 3
10 11 9 34 -2 22 -12 29 -13 28 -3 0 13 -91 78 -109 78 -5 0 -10 8 -10 18 0
15 -2 15 -11 2 -8 -11 -12 -12 -16 -2 -2 6 -17 12 -33 12 -25 0 -29 4 -35 41
-6 34 -10 40 -27 36 -14 -4 -18 -2 -14 9 3 8 -1 14 -8 14 -12 0 -26 -20 -26
-36 0 -2 14 -4 31 -4 23 0 30 -4 26 -14 -3 -8 -1 -17 6 -20 7 -2 -16 -5 -50
-5 -57 -1 -90 11 -61 22 7 2 9 8 5 13 -5 5 -13 1 -18 -9 -12 -20 -34 -23 -26
-3 4 9 -3 16 -19 20 -14 4 -22 11 -19 16 3 5 1 11 -5 15 -5 3 -10 -1 -10 -9 0
-9 -4 -16 -10 -16 -5 0 -10 -7 -10 -16 0 -11 5 -14 18 -9 28 11 34 11 38 0 2
-5 -12 -11 -31 -12 -25 -1 -36 3 -40 16 -4 13 -13 16 -37 13 -21 -3 -29 -1
-24 7 5 7 -2 11 -19 11 -15 0 -24 -4 -20 -10 4 -6 11 -8 16 -5 5 4 9 -1 9 -9
0 -24 -57 -18 -64 8 -6 23 2 36 12 19 5 -7 12 -2 19 14 10 21 10 24 -3 19 -9
-3 -19 -6 -24 -6 -13 0 -29 -57 -19 -67 6 -6 1 -9 -13 -8 -13 2 -22 8 -20 16
1 9 -3 8 -11 -3 -8 -10 -20 -18 -28 -18 -8 0 -10 3 -4 8 18 13 36 52 24 52 -6
0 -9 7 -5 15 3 8 2 14 -2 14 -17 -3 -32 2 -32 9 0 19 41 6 46 -15 3 -12 12
-27 20 -34 11 -9 14 -7 14 10 0 15 9 25 30 32 16 6 27 15 24 20 -3 5 -13 5
-24 -1 -21 -11 -75 4 -66 18 3 5 -1 21 -9 36 -11 20 -11 26 -2 24 6 -3 16 -19
22 -36 7 -24 15 -32 32 -32 29 0 29 8 1 20 -22 8 -22 9 5 9 15 1 27 5 27 11 0
5 -13 7 -30 5 -16 -2 -30 1 -30 6 0 5 5 9 10 9 6 0 10 5 10 10 0 6 -6 10 -14
10 -8 0 -13 11 -13 26 0 18 2 22 8 13 13 -21 20 -4 10 22 -5 13 -10 18 -10 11
-1 -8 -6 -12 -12 -10 -14 5 -12 23 4 24 6 0 20 -7 31 -15 17 -15 18 -15 12 7
-5 14 -3 22 4 22 6 0 8 5 5 10 -4 6 -1 18 7 27 11 14 11 16 -2 11 -8 -2 -16
-14 -18 -26 -4 -27 -22 -29 -22 -3 0 11 -3 28 -6 38 -5 15 -4 15 5 3 10 -14
16 -7 12 13 -1 5 8 6 19 2 17 -5 21 -3 18 11 -2 11 7 23 22 31 14 7 20 13 14
13 -18 0 -25 28 -10 42 11 12 35 13 168 9 24 -1 36 -5 34 -13 -1 -7 -1 -10 1
-6 5 9 111 -1 132 -12 11 -6 10 -10 -7 -19 -14 -7 -23 -8 -27 -1 -8 13 -25 13
-25 1 0 -5 8 -12 18 -14 10 -3 5 -5 -13 -7 -16 -1 -24 -4 -16 -7 8 -3 24 -16
36 -29 15 -16 25 -20 36 -13 12 8 6 13 -13 11 -3 -1 -11 5 -17 12 -8 10 -7 17
4 26 8 7 15 9 15 4 0 -5 5 -2 10 6 6 10 10 11 10 3 0 -7 4 -13 9 -13 5 0 7 9
4 20 -3 11 0 20 6 20 6 0 11 -4 11 -10 0 -5 6 -7 14 -4 17 6 31 -12 16 -21 -5
-3 -10 -13 -10 -21 0 -11 4 -10 18 4 11 9 17 20 16 23 -5 10 34 3 48 -9 11 -9
14 -6 13 16 0 15 -4 27 -10 28 -5 0 -32 10 -60 23 -27 12 -64 29 -80 36 -17 8
-51 19 -77 24 -25 6 -58 15 -74 22 -16 6 -49 11 -73 11 l-44 0 42 25 c65 38
182 78 341 114 80 18 150 39 156 46 6 7 23 13 38 13 35 0 34 27 -1 41 -103 39
-420 112 -540 124 -34 3 -72 8 -85 11 -83 17 -510 -3 -700 -32 -48 -7 -49 -24
-2 -24 24 0 33 4 28 12 -5 8 -3 8 7 2 8 -5 25 -9 39 -10 31 -2 237 14 268 20
20 4 166 8 253 7 33 -1 37 -4 43 -32 3 -17 16 -39 28 -48 16 -14 18 -20 8 -26
-8 -5 -11 -4 -7 2 4 6 -3 13 -14 16 -14 4 -19 2 -15 -8 5 -14 -23 -45 -42 -45
-7 0 -12 -7 -12 -17 0 -15 2 -15 19 1 13 12 21 14 26 6 3 -6 -4 -19 -17 -30
-26 -22 -38 -25 -38 -10 0 6 -8 10 -17 10 -14 0 -15 2 -4 9 21 13 -5 24 -28
11 -11 -5 -33 -10 -50 -10 -16 0 -33 -5 -36 -10 -4 -6 -10 -8 -15 -5 -5 3 -21
-2 -35 -11 -14 -9 -25 -14 -25 -11 0 3 -15 0 -34 -8 -18 -8 -36 -12 -39 -9 -9
9 -48 -7 -42 -17 4 -5 1 -9 -4 -9 -6 0 -11 5 -11 11 0 5 -4 7 -10 4 -20 -12
-9 -25 21 -25 21 0 28 4 23 13 -6 9 -4 9 8 -1 9 -7 33 -15 54 -17 109 -13 315
-52 354 -67 22 -8 23 -11 9 -21 -13 -10 -8 -12 30 -13 25 0 80 -11 121 -23
112 -33 125 -42 55 -36 -33 3 -91 8 -130 10 -92 6 -148 14 -215 31 -62 15 -88
18 -313 35 -97 8 -161 9 -167 3 -5 -5 22 -10 73 -12 45 -1 93 -7 107 -11 14
-5 56 -14 93 -21 38 -7 89 -22 115 -35 26 -12 66 -30 90 -40 44 -20 52 -32 26
-42 -14 -5 -147 17 -219 37 -16 5 -48 11 -70 14 -22 3 -74 10 -115 16 -307 43
-589 55 -900 38 -74 -4 -141 -8 -148 -8 -7 0 -10 -4 -7 -10 3 -5 1 -10 -4 -10
-6 0 -11 4 -11 9 0 5 -33 9 -74 8 -80 -2 -81 -1 -47 53 10 15 11 21 4 17 -7
-5 -13 -4 -13 2 0 6 4 11 9 11 11 0 101 86 101 96 0 3 6 11 13 18 6 7 35 38
64 68 37 40 70 63 118 83 36 16 68 32 70 35 7 11 -162 40 -268 47 -100 6 -130
1 -347 -62 -270 -79 -528 -202 -717 -345 -24 -17 -43 -30 -43 -28 0 11 54 113
86 165 100 157 311 383 459 490 97 71 145 112 145 125 0 18 -80 6 -175 -27z
m2187 -352 c-6 -3 -10 -9 -7 -14 4 -5 -2 -6 -11 -2 -16 6 -15 7 1 20 10 7 21
10 24 7 3 -4 0 -9 -7 -11z m338 -39 c69 -19 131 -36 138 -36 6 -1 12 -5 12
-10 0 -5 4 -7 9 -4 4 3 28 0 52 -7 l44 -13 -50 -12 c-27 -7 -59 -14 -70 -16
-11 -2 -51 -11 -88 -20 -38 -9 -73 -14 -78 -10 -5 3 -9 1 -9 -4 0 -10 -89 -48
-102 -44 -5 1 -8 -2 -8 -8 0 -12 -26 -14 -33 -2 -2 4 -2 1 0 -7 2 -8 -2 -18
-9 -23 -16 -10 -29 -10 -25 0 3 9 -7 12 -35 11 l-23 0 23 -10 c13 -5 20 -13
17 -19 -9 -15 -27 -12 -20 3 4 6 -1 3 -11 -8 -14 -17 -16 -17 -11 -2 4 9 2 17
-3 17 -6 0 -10 -4 -10 -10 0 -5 -4 -10 -10 -10 -5 0 -7 7 -3 16 5 14 3 14 -15
3 -15 -9 -18 -16 -9 -21 6 -4 8 -10 4 -15 -9 -8 -28 17 -21 28 2 4 -1 11 -7
15 -6 3 -15 0 -20 -7 -5 -8 -9 -9 -9 -4 0 6 7 20 15 31 8 12 11 25 7 29 -4 5
1 5 11 2 11 -4 17 -1 17 8 0 9 -11 15 -27 16 -18 1 -21 3 -10 6 9 2 15 8 12
13 -3 5 0 19 6 33 8 19 19 24 43 24 17 0 41 5 53 11 12 7 29 9 39 5 12 -4 15
-3 10 5 -4 7 -2 12 3 12 23 0 10 15 -14 16 -15 1 -25 -3 -25 -12 0 -8 -6 -14
-14 -14 -17 0 -29 27 -16 35 6 4 10 0 10 -7 1 -8 7 -5 16 7 12 16 16 17 23 6
11 -17 31 -6 31 17 0 11 -9 18 -25 18 -14 1 -25 -3 -25 -10 0 -6 -5 -4 -10 4
-8 13 -10 12 -10 -2 0 -10 -2 -18 -4 -18 -2 0 -12 -3 -22 -7 -12 -4 -15 -3
-10 5 4 7 3 12 -3 12 -15 0 -19 -23 -7 -43 8 -13 8 -20 -4 -27 -8 -5 -17 -7
-19 -4 -3 3 1 9 9 14 10 7 11 10 3 10 -18 0 -16 47 2 54 8 3 23 3 33 -1 12 -4
14 -3 7 5 -5 5 -19 12 -30 15 -11 3 25 3 80 1 75 -3 131 -13 225 -40z m-270
-54 c0 -5 -2 -10 -4 -10 -3 0 -8 5 -11 10 -3 6 -1 10 4 10 6 0 11 -4 11 -10z
m-80 -20 c0 -5 -4 -10 -10 -10 -5 0 -10 5 -10 10 0 6 5 10 10 10 6 0 10 -4 10
-10z m-90 -80 c0 -5 -5 -10 -12 -10 -6 0 -2 -10 10 -23 30 -32 28 -46 -3 -17
-28 26 -33 60 -10 60 8 0 15 -4 15 -10z m30 -10 c0 -5 -5 -10 -11 -10 -5 0 -7
5 -4 10 3 6 8 10 11 10 2 0 4 -4 4 -10z m22 -39 c-5 -3 -12 -15 -15 -26 -4
-16 -5 -15 -6 6 0 14 2 29 7 33 4 4 8 12 8 17 3 22 7 22 11 0 3 -13 0 -26 -5
-30z m-132 29 c0 -5 -10 -10 -22 -9 -22 0 -22 1 -3 9 11 5 21 9 23 9 1 1 2 -3
2 -9z m-60 -33 c0 -4 -6 -2 -14 5 -8 7 -12 17 -9 22 5 8 23 -12 23 -27z
m-1430 -175 c0 -5 13 -7 29 -4 16 2 31 -1 35 -6 11 -19 -6 -42 -31 -42 -13 0
-33 -5 -43 -10 -15 -8 -21 -6 -29 7 -6 10 -11 13 -11 6 0 -6 -8 -10 -17 -8
-10 2 -21 4 -25 4 -15 2 -8 40 10 50 21 12 82 14 82 3z m-1210 -22 c0 -5 -4
-10 -10 -10 -5 0 -10 5 -10 10 0 6 5 10 10 10 6 0 10 -4 10 -10z m1095 -25 c0
-11 8 -19 20 -20 80 -7 172 -41 178 -67 5 -17 2 -19 -16 -13 -67 22 -211 37
-364 38 -95 1 -173 3 -173 4 0 2 24 10 140 43 54 16 94 21 143 18 61 -3 83 2
57 15 -6 3 -5 4 2 3 7 -2 13 -11 13 -21z m230 -35 c3 -5 1 -10 -4 -10 -6 0
-11 5 -11 10 0 6 2 10 4 10 3 0 8 -4 11 -10z m1380 -50 c-3 -5 -10 -10 -16
-10 -5 0 -9 5 -9 10 0 6 7 10 16 10 8 0 12 -4 9 -10z m60 -100 c-3 -5 -12 -10
-18 -10 -7 0 -6 4 3 10 19 12 23 12 15 0z m1 -96 c-3 -9 -6 -18 -6 -20 0 -2
-7 -4 -15 -4 -18 0 -19 6 -2 25 16 19 31 19 23 -1z m-831 -74 c3 -5 1 -10 -4
-10 -6 0 -11 5 -11 10 0 6 2 10 4 10 3 0 8 -4 11 -10z m772 -42 c-3 -7 -5 -2
-5 12 0 14 2 19 5 13 2 -7 2 -19 0 -25z m-734 2 c-3 -10 -14 -22 -25 -26 -21
-6 -41 6 -20 13 6 3 12 11 12 19 0 8 9 14 19 14 14 0 18 -5 14 -20z m767 0 c0
-5 -4 -10 -10 -10 -5 0 -10 5 -10 10 0 6 5 10 10 10 6 0 10 -4 10 -10z m213
-27 c-7 -2 -19 -2 -25 0 -7 3 -2 5 12 5 14 0 19 -2 13 -5z m-231 -16 c-15 -7
-26 -7 -33 0 -6 6 1 10 23 10 30 0 30 -1 10 -10z m-557 -13 c32 -13 3 -21 -62
-17 -94 5 -133 12 -133 25 0 11 163 4 195 -8z m801 -114 c0 -11 -6 -20 -13
-20 -14 0 -18 22 -6 33 12 12 19 7 19 -13z m-58 -45 c-3 -3 -9 2 -12 12 -6 14
-5 15 5 6 7 -7 10 -15 7 -18z m-36 -15 c-6 -16 -11 -20 -16 -11 -4 6 -2 19 5
27 16 20 21 12 11 -16z m104 -10 c16 0 16 -2 -4 -15 -26 -19 -89 -11 -89 11 0
8 4 14 9 14 4 0 8 -5 8 -12 0 -6 3 -8 7 -5 3 4 12 2 20 -4 10 -9 13 -8 13 5 0
9 -4 16 -10 16 -5 0 -10 7 -10 17 0 13 3 12 19 -5 10 -12 27 -22 37 -22z m584
-50 c0 -5 -2 -10 -4 -10 -3 0 -8 5 -11 10 -3 6 -1 10 4 10 6 0 11 -4 11 -10z
m-310 -30 c0 -5 -5 -10 -11 -10 -5 0 -7 5 -4 10 3 6 8 10 11 10 2 0 4 -4 4
-10z m342 -14 c4 -17 1 -23 -9 -19 -15 6 -15 6 -7 27 8 22 11 20 16 -8z m-72
-112 c0 -8 -5 -12 -10 -9 -6 4 -8 11 -5 16 9 14 15 11 15 -7z m265 -4 c3 -6
-1 -7 -9 -4 -18 7 -21 14 -7 14 6 0 13 -4 16 -10z m-285 -20 c0 -5 -4 -10 -10
-10 -5 0 -10 5 -10 10 0 6 5 10 10 10 6 0 10 -4 10 -10z m275 -8 c-3 -3 -11 0
-18 7 -9 10 -8 11 6 5 10 -3 15 -9 12 -12z m-222 -13 c-9 -9 -9 -17 0 -31 10
-16 9 -22 -5 -32 -10 -7 -18 -16 -18 -20 0 -5 -10 -16 -22 -27 -14 -10 -18
-18 -10 -19 7 0 10 -5 6 -11 -8 -14 -23 1 -29 30 -3 17 0 21 10 17 10 -3 15 1
15 13 0 10 12 23 27 30 27 12 27 13 8 27 -11 8 -21 11 -23 5 -2 -5 -12 -6 -24
-3 -20 5 -20 5 3 18 31 17 78 19 62 3z m-103 -19 c0 -5 -4 -10 -10 -10 -5 0
-10 5 -10 10 0 6 5 10 10 10 6 0 10 -4 10 -10z m-20 -20 c0 -5 -4 -10 -10 -10
-5 0 -10 5 -10 10 0 6 5 10 10 10 6 0 10 -4 10 -10z m22 -18 c-10 -3 -10 -7
-1 -18 7 -9 8 -14 1 -14 -6 0 -12 6 -15 13 -6 18 4 38 16 30 8 -5 7 -8 -1 -11z
m108 -26 c0 -3 -4 -8 -10 -11 -5 -3 -10 -1 -10 4 0 6 5 11 10 11 6 0 10 -2 10
-4z m-10 -46 c0 -5 -7 -10 -15 -10 -8 0 -15 5 -15 10 0 6 7 10 15 10 8 0 15
-4 15 -10z m260 -45 c0 -8 -4 -15 -10 -15 -5 0 -7 7 -4 15 4 8 8 15 10 15 2 0
4 -7 4 -15z m-255 -4 c3 -6 -3 -9 -14 -8 -11 0 -17 5 -15 9 7 11 22 10 29 -1z
m-4058 -27 c-9 -9 -28 6 -21 18 4 6 10 6 17 -1 6 -6 8 -13 4 -17z m4111 -13
c3 -21 8 -23 45 -18 23 3 34 3 25 0 -10 -2 -15 -10 -11 -19 3 -7 9 -12 13 -9
4 3 10 -2 14 -10 3 -9 0 -15 -8 -15 -28 0 -45 12 -39 27 5 13 2 13 -25 -1 -38
-20 -39 -20 -39 -1 0 8 4 15 7 15 4 0 8 11 8 25 0 30 -1 30 -36 9 l-27 -16 24
21 c29 26 45 23 49 -8z m32 -1 c0 -5 -5 -10 -11 -10 -5 0 -7 5 -4 10 3 6 8 10
11 10 2 0 4 -4 4 -10z m-60 -14 c0 -3 -4 -8 -10 -11 -5 -3 -10 -1 -10 4 0 6 5
11 10 11 6 0 10 -2 10 -4z m30 -61 c0 -9 -6 -12 -16 -8 -13 5 -13 7 -2 14 17
11 18 11 18 -6z m37 -1 c-3 -3 -12 -4 -19 -1 -8 3 -5 6 6 6 11 1 17 -2 13 -5z
m137 -23 c3 -5 -1 -11 -9 -14 -9 -4 -12 -1 -8 9 6 16 10 17 17 5z m41 -11 c3
-6 -1 -7 -9 -4 -18 7 -21 14 -7 14 6 0 13 -4 16 -10z m-78 -13 c4 -5 -1 -5
-10 -1 -12 4 -17 2 -15 -7 2 -9 -4 -13 -15 -11 -18 3 -39 -35 -29 -53 3 -5 -4
-2 -15 8 -11 9 -25 17 -31 17 -7 0 -12 9 -12 21 0 13 -4 18 -12 13 -7 -4 -8
-3 -4 4 4 7 16 12 27 12 16 0 19 -5 14 -20 -5 -15 -3 -19 10 -14 9 4 14 12 11
19 -2 7 -2 15 1 18 7 8 70 3 80 -6z m-167 -12 c-7 -8 -17 -12 -22 -9 -6 4 -5
10 3 15 22 14 33 10 19 -6z m98 -123 c2 -7 -1 -12 -8 -12 -6 0 -9 4 -6 9 4 5
1 12 -4 14 -6 3 -5 4 2 3 6 -1 14 -8 16 -14z m-4121 -14 c-3 -8 -6 -5 -6 6 -1
11 2 17 5 13 3 -3 4 -12 1 -19z m-562 -5 c-2 -10 -4 -21 -4 -25 -1 -5 -5 -8
-11 -8 -14 0 -12 37 3 43 6 3 13 6 14 6 1 1 0 -7 -2 -16z m60 -40 c12 -23 15
-24 21 -10 3 9 10 17 16 17 5 0 6 -4 3 -10 -3 -5 -2 -17 3 -26 15 -26 -14 -74
-45 -74 -18 0 -24 4 -19 15 4 12 0 14 -21 9 -19 -5 -30 -2 -40 12 -12 16 -15
17 -23 4 -8 -13 -10 -12 -10 3 0 10 8 17 20 17 13 0 20 7 20 20 0 11 6 20 14
20 8 0 20 15 26 33 10 24 14 28 17 14 3 -10 11 -30 18 -44z m4586 30 c-8 -15
-10 -15 -11 -2 0 17 10 32 18 25 2 -3 -1 -13 -7 -23z m34 -33 c17 -19 17 -20
1 -20 -9 0 -14 5 -11 10 3 6 1 10 -4 10 -6 0 -11 5 -11 10 0 14 5 13 25 -10z
m-4750 -49 c-12 -12 -26 19 -19 40 7 24 7 24 15 -5 5 -17 6 -32 4 -35z m32 52
c-4 -3 -2 -12 4 -19 10 -12 7 -12 -30 -5 -5 1 20 31 27 31 3 0 2 -3 -1 -7z
m243 -70 c-11 -52 -13 -55 -26 -38 -17 23 -18 35 -3 35 5 0 9 8 8 18 -3 19 24
68 29 52 2 -5 -2 -35 -8 -67z m-48 45 c-7 -7 -12 -8 -12 -2 0 14 12 26 19 19
2 -3 -1 -11 -7 -17z m218 -12 c0 -20 -27 -39 -45 -32 -8 3 -15 13 -15 23 0 13
3 14 12 5 16 -16 28 -15 28 3 0 8 5 15 10 15 6 0 10 -6 10 -14z m48 -4 c2 -7
-3 -12 -12 -12 -9 0 -16 7 -16 16 0 17 22 14 28 -4z m4312 -2 c0 -5 -2 -10 -4
-10 -3 0 -8 5 -11 10 -3 6 -1 10 4 10 6 0 11 -4 11 -10z m-4607 -48 c-3 -12
-13 -22 -22 -22 -10 0 -12 3 -5 8 6 4 14 16 17 26 10 25 18 16 10 -12z m4587
-26 c0 -3 -4 -8 -10 -11 -5 -3 -10 -1 -10 4 0 6 5 11 10 11 6 0 10 -2 10 -4z
m-93 -22 c-3 -3 -12 -4 -19 -1 -8 3 -5 6 6 6 11 1 17 -2 13 -5z m-67 -14 c-12
-8 -13 -11 -1 -19 8 -5 9 -11 3 -15 -6 -3 -13 0 -15 6 -3 8 -6 6 -6 -4 -1 -10
-5 -18 -10 -18 -6 0 -6 12 0 30 6 17 18 30 27 30 15 0 15 -2 2 -10z m184 -6
c4 -10 1 -14 -6 -12 -15 5 -23 28 -10 28 5 0 13 -7 16 -16z m51 -62 c0 -50
-10 -76 -26 -67 -15 10 -10 28 6 21 19 -7 19 11 1 46 -13 25 -13 29 2 38 9 5
17 10 17 10 0 0 0 -21 0 -48z m-25 -12 c0 -5 -5 -10 -11 -10 -5 0 -7 5 -4 10
3 6 8 10 11 10 2 0 4 -4 4 -10z m-166 -30 c-6 -6 -10 -3 -10 10 0 13 4 16 10
10 7 -7 7 -13 0 -20z m-73 -3 c-10 -9 -11 -8 -5 6 3 10 9 15 12 12 3 -3 0 -11
-7 -18z m174 4 c-3 -6 -11 -11 -17 -11 -6 0 -6 6 2 15 14 17 26 13 15 -4z
m-39 -23 c1 -10 -2 -18 -8 -18 -6 0 -7 7 -4 16 5 12 1 14 -15 9 -15 -5 -19 -4
-14 4 10 17 38 9 41 -11z m-66 -19 c0 -6 -4 -7 -10 -4 -5 3 -10 11 -10 16 0 6
5 7 10 4 6 -3 10 -11 10 -16z m119 7 c10 -12 8 -13 -8 -9 -12 3 -18 9 -15 14
7 12 10 11 23 -5z m-36 -33 c-5 -12 -2 -15 8 -11 10 4 15 -2 17 -18 2 -26 -13
-33 -21 -10 -4 9 -14 12 -28 9 l-21 -6 23 27 c26 30 31 32 22 9z m-62 -26
c-10 -9 -11 -8 -5 6 3 10 9 15 12 12 3 -3 0 -11 -7 -18z m229 -9 c0 -12 -1
-19 -3 -17 -1 2 -9 12 -16 22 -12 14 -11 17 3 17 10 0 16 -8 16 -22z m-190
-68 c-8 -5 -19 -10 -25 -10 -5 0 -3 5 5 10 8 5 20 10 25 10 6 0 3 -5 -5 -10z
m27 -46 c-3 -3 -12 -4 -19 -1 -8 3 -5 6 6 6 11 1 17 -2 13 -5z m10 -20 c-3 -3
-12 -4 -19 -1 -8 3 -5 6 6 6 11 1 17 -2 13 -5z m-87 -123 c0 -6 -4 -13 -10
-16 -5 -3 -10 1 -10 9 0 9 5 16 10 16 6 0 10 -4 10 -9z m36 -6 c-4 -11 1 -15
17 -15 20 -1 21 -1 4 -11 -13 -8 -22 -8 -29 -1 -11 11 -5 42 8 42 3 0 4 -7 0
-15z m-6 -899 c0 -27 -10 -14 -16 20 -3 22 -2 25 6 14 5 -8 10 -24 10 -34z"/>
<path d="M6700 9240 c0 -5 5 -10 11 -10 5 0 7 5 4 10 -3 6 -8 10 -11 10 -2 0
-4 -4 -4 -10z"/>
<path d="M6405 9150 c-4 -6 -3 -16 3 -22 13 -13 23 4 13 21 -7 10 -10 10 -16
1z"/>
<path d="M6460 9150 c0 -5 5 -10 11 -10 5 0 7 5 4 10 -3 6 -8 10 -11 10 -2 0
-4 -4 -4 -10z"/>
<path d="M6436 9105 c-3 -8 -2 -25 3 -37 6 -18 9 -19 14 -5 3 9 2 19 -3 22 -5
3 -7 12 -3 20 3 8 3 15 0 15 -3 0 -7 -7 -11 -15z"/>
<path d="M6500 9090 c0 -5 5 -10 10 -10 6 0 10 5 10 10 0 6 -4 10 -10 10 -5 0
-10 -4 -10 -10z"/>
<path d="M6400 9055 c-7 -8 -9 -15 -6 -15 4 0 14 7 22 15 9 8 11 15 6 15 -5 0
-15 -7 -22 -15z"/>
<path d="M4680 8850 c-13 -8 -12 -10 3 -10 9 0 17 5 17 10 0 12 -1 12 -20 0z"/>
<path d="M2515 7360 c-3 -5 -2 -10 4 -10 5 0 13 5 16 10 3 6 2 10 -4 10 -5 0
-13 -4 -16 -10z"/>
<path d="M5905 9610 c-3 -5 -1 -10 4 -10 6 0 11 5 11 10 0 6 -2 10 -4 10 -3 0
-8 -4 -11 -10z"/>
<path d="M5914 9545 c-4 -8 -12 -15 -19 -15 -7 0 -15 -7 -19 -15 -3 -8 -16
-20 -28 -26 -24 -11 -65 -59 -50 -59 13 0 142 109 142 120 0 16 -20 12 -26 -5z"/>
<path d="M5735 9540 c-3 -5 -1 -10 4 -10 6 0 11 5 11 10 0 6 -2 10 -4 10 -3 0
-8 -4 -11 -10z"/>
<path d="M4440 9430 c-14 -11 -20 -20 -15 -20 6 0 21 9 35 20 14 11 21 20 15
20 -5 0 -21 -9 -35 -20z"/>
<path d="M5755 9420 c-3 -5 -2 -10 4 -10 5 0 13 5 16 10 3 6 2 10 -4 10 -5 0
-13 -4 -16 -10z"/>
<path d="M3042 9385 c-81 -38 -164 -127 -214 -230 -45 -94 -49 -128 -4 -40 58
116 147 213 248 270 56 32 38 32 -30 0z"/>
<path d="M5679 9373 c-12 -16 -12 -17 1 -7 8 6 22 14 30 17 13 5 12 6 -1 6 -9
1 -23 -7 -30 -16z"/>
<path d="M4349 9363 c-13 -16 -12 -17 4 -4 16 13 21 21 13 21 -2 0 -10 -8 -17
-17z"/>
<path d="M5686 9347 c-22 -7 -42 -19 -44 -27 -4 -13 -3 -13 10 -2 12 9 18 10
23 2 5 -8 14 -5 29 8 11 11 30 22 41 25 l20 5 -20 0 c-11 0 -38 -5 -59 -11z"/>
<path d="M4219 9253 l-24 -28 28 24 c25 23 32 31 24 31 -2 0 -14 -12 -28 -27z"/>
<path d="M5915 9060 c3 -5 8 -10 11 -10 2 0 4 5 4 10 0 6 -5 10 -11 10 -5 0
-7 -4 -4 -10z"/>
<path d="M2766 9024 c-4 -9 -4 -19 -1 -22 2 -3 7 3 11 12 4 9 4 19 1 22 -2 3
-7 -3 -11 -12z"/>
<path d="M5645 9014 c-14 -11 -15 -15 -5 -13 8 1 26 0 40 -4 56 -13 110 -17
110 -7 0 5 -22 10 -49 10 -56 0 -84 8 -75 21 7 13 2 11 -21 -7z"/>
<path d="M5860 9012 c0 -7 -6 -12 -12 -11 -23 3 -38 -1 -38 -8 0 -10 168 -9
177 1 3 3 -18 6 -48 6 -30 0 -60 5 -67 12 -9 9 -12 9 -12 0z"/>
<path d="M5740 8966 c0 -2 7 -7 16 -10 8 -3 12 -2 9 4 -6 10 -25 14 -25 6z"/>
<path d="M5708 8943 c7 -3 16 -2 19 1 4 3 -2 6 -13 5 -11 0 -14 -3 -6 -6z"/>
<path d="M6430 8837 c30 -13 91 -15 87 -4 -1 5 -27 10 -57 12 -46 2 -51 1 -30
-8z"/>
<path d="M6540 8831 c0 -5 -3 -16 -6 -25 -3 -9 -2 -16 3 -16 5 0 10 11 11 25
1 14 0 25 -3 25 -3 0 -5 -4 -5 -9z"/>
<path d="M6560 8830 c0 -18 32 -42 43 -31 6 6 18 11 27 11 10 0 11 -3 3 -8 -7
-4 -9 -13 -4 -21 6 -9 10 -7 14 9 7 26 -16 38 -38 20 -12 -10 -15 -10 -15 3 0
8 -7 17 -15 21 -8 3 -15 1 -15 -4z"/>
<path d="M6920 8825 c0 -10 23 -30 43 -38 25 -10 21 -1 -13 23 -16 12 -30 18
-30 15z"/>
<path d="M6440 8805 c0 -2 10 -23 21 -45 21 -40 21 -41 3 -55 -18 -14 -18 -14
4 -15 13 0 20 4 17 10 -9 14 66 43 79 30 5 -5 15 -10 21 -10 5 0 2 5 -7 11
-10 5 -18 17 -18 26 0 13 -3 13 -15 3 -13 -11 -20 -9 -42 11 -19 18 -25 19
-20 7 4 -12 2 -15 -9 -11 -17 6 -19 30 -1 36 6 3 2 6 -10 6 -13 1 -23 -1 -23
-4z m80 -65 c0 -5 -7 -10 -16 -10 -8 0 -12 5 -9 10 3 6 10 10 16 10 5 0 9 -4
9 -10z"/>
<path d="M6397 8793 c-11 -10 -8 -25 4 -18 6 4 17 -1 24 -11 17 -22 20 -11 5
17 -11 20 -22 24 -33 12z"/>
<path d="M6867 8779 c4 -13 8 -18 11 -10 2 7 -1 18 -6 23 -8 8 -9 4 -5 -13z"/>
<path d="M2695 8707 c-20 -95 -28 -283 -14 -377 10 -71 46 -215 60 -242 22
-40 26 -14 7 45 -44 139 -61 402 -37 570 6 43 9 80 7 82 -3 3 -13 -32 -23 -78z"/>
<path d="M6755 8780 c3 -5 8 -10 11 -10 2 0 4 5 4 10 0 6 -5 10 -11 10 -5 0
-7 -4 -4 -10z"/>
<path d="M6773 8771 c-8 -13 -9 -22 -3 -26 11 -7 24 18 18 35 -2 6 -9 1 -15
-9z"/>
<path d="M6830 8776 c0 -8 -3 -21 -6 -30 -3 -9 -2 -16 3 -16 5 0 10 14 11 30
1 17 0 30 -3 30 -3 0 -5 -6 -5 -14z"/>
<path d="M6585 8750 c3 -5 8 -10 11 -10 2 0 4 5 4 10 0 6 -5 10 -11 10 -5 0
-7 -4 -4 -10z"/>
<path d="M6636 8747 c3 -10 9 -15 12 -12 3 3 0 11 -7 18 -10 9 -11 8 -5 -6z"/>
<path d="M6685 8740 c3 -5 11 -10 16 -10 6 0 7 5 4 10 -3 6 -11 10 -16 10 -6
0 -7 -4 -4 -10z"/>
<path d="M6850 8730 c0 -5 7 -10 16 -10 8 0 12 5 9 10 -3 6 -10 10 -16 10 -5
0 -9 -4 -9 -10z"/>
<path d="M6389 8728 c-12 -45 5 -68 38 -49 17 10 16 10 -4 11 -15 0 -21 5 -17
14 3 8 1 17 -5 21 -6 3 -11 5 -12 3z"/>
<path d="M6430 8720 c-13 -8 -13 -10 2 -10 9 0 20 5 23 10 8 13 -5 13 -25 0z"/>
<path d="M6747 8719 c7 -7 15 -10 18 -7 3 3 -2 9 -12 12 -14 6 -15 5 -6 -5z"/>
<path d="M6886 8715 c-9 -26 -7 -32 5 -12 6 10 9 21 6 23 -2 3 -7 -2 -11 -11z"/>
<path d="M6920 8720 c0 -5 5 -10 11 -10 5 0 7 5 4 10 -3 6 -8 10 -11 10 -2 0
-4 -4 -4 -10z"/>
<path d="M6960 8720 c-8 -5 -10 -10 -5 -10 6 0 17 5 25 10 8 5 11 10 5 10 -5
0 -17 -5 -25 -10z"/>
<path d="M7012 8708 c2 -6 10 -14 16 -16 7 -2 10 2 6 12 -7 18 -28 22 -22 4z"/>
<path d="M6541 8694 c0 -11 3 -14 6 -6 3 7 2 16 -1 19 -3 4 -6 -2 -5 -13z"/>
<path d="M6780 8688 c0 -19 2 -20 10 -8 13 19 13 30 0 30 -5 0 -10 -10 -10
-22z"/>
<path d="M6846 8694 c-11 -29 -7 -54 8 -48 15 6 31 35 18 33 -19 -3 -23 2 -12
16 7 9 8 15 2 15 -5 0 -13 -7 -16 -16z"/>
<path d="M6512 8681 c9 -15 8 -22 -6 -36 -11 -11 -14 -20 -7 -24 6 -4 7 -12 1
-21 -6 -8 -10 -19 -10 -25 0 -5 5 -3 10 5 7 11 12 12 18 3 4 -6 7 12 6 40 -1
70 -2 77 -14 77 -6 0 -6 -7 2 -19z"/>
<path d="M6574 8680 c0 -11 4 -20 8 -20 4 0 8 9 8 20 0 11 -4 20 -8 20 -4 0
-8 -9 -8 -20z"/>
<path d="M7090 8690 c0 -6 13 -19 30 -28 31 -18 48 -58 31 -75 -19 -19 -11
-31 8 -13 11 10 25 15 32 10 9 -5 6 -10 -10 -16 -13 -4 -19 -12 -15 -19 5 -9
-1 -10 -22 -5 -21 5 -25 4 -14 -4 13 -8 13 -10 -2 -10 -21 0 -24 -16 -5 -23 9
-4 8 -6 -2 -6 -7 -1 -22 -11 -33 -23 -16 -19 -21 -20 -28 -8 -7 10 -10 11 -10
3 0 -9 -17 -13 -51 -13 -30 0 -48 4 -44 10 4 6 -1 7 -11 3 -12 -5 -15 -3 -9 6
4 8 -4 6 -19 -4 -31 -20 -31 -23 -6 -53 12 -14 49 -32 100 -47 45 -14 105 -35
134 -49 28 -13 58 -27 66 -30 8 -3 25 -13 38 -22 12 -9 22 -12 22 -7 0 13 -67
59 -140 96 l-55 29 80 -9 c107 -11 273 -8 308 6 25 10 28 15 25 48 -3 32 -9
41 -43 59 -204 108 -282 152 -307 176 -31 29 -48 35 -48 18z m175 -154 c14 -8
23 -16 18 -19 -5 -3 -20 3 -33 14 -30 22 -23 25 15 5z"/>
<path d="M6680 8676 c0 -9 5 -16 10 -16 6 0 10 4 10 9 0 6 -4 13 -10 16 -5 3
-10 -1 -10 -9z"/>
<path d="M7150 8686 c0 -2 7 -7 16 -10 8 -3 12 -2 9 4 -6 10 -25 14 -25 6z"/>
<path d="M6424 8656 c-35 -9 -40 -13 -28 -24 12 -11 15 -10 20 1 5 15 44 12
44 -4 0 -18 -44 -82 -48 -69 -3 7 0 15 5 19 11 7 27 51 19 51 -13 0 -37 -63
-30 -78 4 -10 8 -28 9 -42 4 -39 4 -40 21 -40 14 0 14 3 4 15 -7 8 -9 15 -4
15 5 0 3 4 -4 8 -7 5 -10 16 -6 25 9 24 22 12 18 -18 -1 -17 2 -25 9 -22 8 2
12 25 11 60 -1 31 2 54 6 52 13 -8 19 37 7 49 -9 9 -23 9 -53 2z"/>
<path d="M6723 8653 c0 -8 6 -9 19 -2 10 5 18 11 18 12 0 2 -8 3 -18 3 -10 0
-19 -6 -19 -13z"/>
<path d="M6794 8647 c-11 -12 -12 -17 -4 -11 8 6 22 13 30 16 9 3 10 7 3 11
-6 4 -19 -3 -29 -16z"/>
<path d="M6936 8653 c-6 -14 -5 -15 5 -6 7 7 10 15 7 18 -3 3 -9 -2 -12 -12z"/>
<path d="M6544 8616 c2 -20 6 -39 9 -42 3 -3 4 10 3 30 -2 20 -6 39 -9 42 -3
3 -4 -10 -3 -30z"/>
<path d="M6606 8643 c-9 -10 -7 -73 3 -73 4 0 7 16 4 35 -3 28 0 33 12 29 8
-4 15 -4 15 -1 0 8 -28 16 -34 10z"/>
<path d="M6902 8636 c7 -8 15 -12 17 -11 5 6 -10 25 -20 25 -5 0 -4 -6 3 -14z"/>
<path d="M7066 8631 c-5 -8 0 -50 7 -58 3 -2 4 12 3 32 -1 37 -2 40 -10 26z"/>
<path d="M6875 8620 c-3 -5 -1 -10 4 -10 6 0 11 5 11 10 0 6 -2 10 -4 10 -3 0
-8 -4 -11 -10z"/>
<path d="M6936 8615 c-20 -21 -20 -31 0 -39 22 -9 30 0 15 18 -9 11 -9 15 1
19 7 2 10 7 7 11 -4 4 -14 0 -23 -9z"/>
<path d="M6690 8610 c0 -5 5 -10 10 -10 6 0 10 5 10 10 0 6 -4 10 -10 10 -5 0
-10 -4 -10 -10z"/>
<path d="M6645 8600 c-3 -6 1 -7 9 -4 18 7 21 14 7 14 -6 0 -13 -4 -16 -10z"/>
<path d="M6753 8593 c9 -2 23 -2 30 0 6 3 -1 5 -18 5 -16 0 -22 -2 -12 -5z"/>
<path d="M6820 8581 c15 -30 30 -35 17 -6 -7 14 -16 25 -20 25 -4 0 -3 -9 3
-19z"/>
<path d="M6707 8560 c10 -11 21 -20 25 -20 4 0 0 9 -9 20 -10 11 -21 20 -25
20 -4 0 0 -9 9 -20z"/>
<path d="M6770 8570 c-18 -12 -2 -12 25 0 13 6 15 9 5 9 -8 0 -22 -4 -30 -9z"/>
<path d="M6960 8561 c-8 -6 -18 -7 -22 -5 -4 3 -8 1 -8 -5 0 -5 9 -9 20 -8 11
1 20 5 20 10 0 4 5 5 12 1 7 -4 8 -3 4 4 -9 14 -7 14 -26 3z"/>
<path d="M7080 8560 c-8 -5 -10 -10 -5 -10 6 0 17 5 25 10 8 5 11 10 5 10 -5
0 -17 -5 -25 -10z"/>
<path d="M6528 8538 c2 -10 8 -18 13 -18 4 0 13 8 18 18 7 14 5 17 -13 17 -17
0 -22 -5 -18 -17z"/>
<path d="M7007 8538 c3 -13 6 -33 7 -44 0 -13 6 -19 14 -17 15 6 15 9 0 50
-13 37 -30 45 -21 11z"/>
<path d="M6587 8543 c-4 -3 -7 -13 -7 -22 1 -13 3 -13 11 2 11 19 8 33 -4 20z"/>
<path d="M7030 8540 c0 -5 7 -7 15 -4 8 4 15 8 15 10 0 2 -7 4 -15 4 -8 0 -15
-4 -15 -10z"/>
<path d="M6475 8530 c-5 -8 -2 -17 8 -25 10 -7 17 -20 17 -29 0 -9 4 -16 8
-16 4 0 8 14 7 30 0 17 -5 30 -12 30 -6 0 -13 5 -15 12 -3 9 -7 8 -13 -2z"/>
<path d="M6808 8533 c7 -3 16 -2 19 1 4 3 -2 6 -13 5 -11 0 -14 -3 -6 -6z"/>
<path d="M6610 8514 c0 -14 3 -14 15 -4 8 7 15 14 15 16 0 2 -7 4 -15 4 -8 0
-15 -7 -15 -16z"/>
<path d="M6650 8520 c0 -5 5 -10 11 -10 5 0 7 5 4 10 -3 6 -8 10 -11 10 -2 0
-4 -4 -4 -10z"/>
<path d="M6690 8530 c-1 -3 -3 -15 -4 -27 -2 -19 0 -21 12 -10 8 6 17 11 19 9
3 -2 7 -1 11 2 3 3 -2 6 -10 6 -9 0 -19 6 -21 13 -3 6 -6 10 -7 7z"/>
<path d="M6728 8523 c7 -3 16 -2 19 1 4 3 -2 6 -13 5 -11 0 -14 -3 -6 -6z"/>
<path d="M6850 8520 c0 -5 7 -6 17 -3 12 5 14 3 8 -7 -5 -9 -4 -11 4 -6 6 4 9
12 6 17 -8 12 -35 12 -35 -1z"/>
<path d="M6911 8523 c-1 -6 -4 -20 -7 -30 -5 -17 -5 -17 6 0 6 10 9 23 6 30
-3 9 -5 9 -5 0z"/>
<path d="M6940 8519 c0 -10 31 -20 41 -13 17 10 9 19 -16 19 -14 0 -25 -3 -25
-6z"/>
<path d="M6773 8513 c9 -2 23 -2 30 0 6 3 -1 5 -18 5 -16 0 -22 -2 -12 -5z"/>
<path d="M7065 8510 c-3 -5 1 -10 10 -10 9 0 13 5 10 10 -3 6 -8 10 -10 10 -2
0 -7 -4 -10 -10z"/>
<path d="M6995 8500 c-3 -5 -1 -10 4 -10 6 0 11 5 11 10 0 6 -2 10 -4 10 -3 0
-8 -4 -11 -10z"/>
<path d="M6536 8493 c-11 -11 -6 -23 9 -23 8 0 15 4 15 9 0 13 -16 22 -24 14z"/>
<path d="M6800 8489 c0 -5 5 -7 10 -4 6 3 10 8 10 11 0 2 -4 4 -10 4 -5 0 -10
-5 -10 -11z"/>
<path d="M6740 8480 c-13 -8 -13 -10 2 -10 9 0 20 5 23 10 8 13 -5 13 -25 0z"/>
<path d="M6614 8471 c5 -8 1 -11 -16 -8 -12 2 -17 2 -10 0 9 -3 10 -8 2 -17
-8 -10 -3 -13 20 -12 20 1 29 5 25 14 -2 6 0 12 4 12 5 0 11 -5 13 -12 3 -7 7
-6 11 5 4 11 1 17 -7 17 -8 0 -22 3 -32 7 -12 4 -15 3 -10 -6z"/>
<path d="M6460 8445 c0 -8 2 -15 4 -15 2 0 6 7 10 15 3 8 1 15 -4 15 -6 0 -10
-7 -10 -15z"/>
<path d="M6770 8450 c0 -6 7 -11 15 -11 31 -3 35 -4 53 -20 22 -19 52 -21 52
-3 0 8 -6 11 -15 7 -9 -3 -21 1 -28 10 -14 17 -77 31 -77 17z"/>
<path d="M6785 8420 c-4 -6 -3 -10 2 -10 4 0 1 -5 -7 -10 -12 -8 -12 -10 5
-11 l20 0 -20 -10 -20 -9 20 3 c13 2 19 9 17 21 -2 11 1 15 7 11 6 -3 11 -2
11 3 0 14 -28 23 -35 12z"/>
<path d="M6657 8406 c-5 -12 0 -16 24 -16 18 0 28 4 24 10 -4 6 -11 7 -17 4
-6 -4 -14 -1 -18 6 -5 8 -9 7 -13 -4z"/>
<path d="M6606 8328 c5 -8 2 -9 -10 -5 -10 4 -15 3 -11 -3 3 -6 15 -10 26 -10
11 0 18 4 15 9 -4 5 0 12 6 14 7 3 3 6 -10 6 -15 1 -21 -3 -16 -11z"/>
<path d="M6651 8309 c-13 -5 -21 -12 -18 -15 3 -3 15 -1 26 6 12 6 27 8 33 4
7 -4 8 -3 4 4 -8 14 -13 14 -45 1z"/>
<path d="M6528 8293 c-20 -11 -17 -12 27 -6 61 7 65 9 26 15 -16 2 -40 -1 -53
-9z"/>
<path d="M6670 8266 c0 -2 7 -7 16 -10 8 -3 12 -2 9 4 -6 10 -25 14 -25 6z"/>
<path d="M6862 8261 c-11 -6 -10 -10 4 -15 9 -3 19 -4 22 -1 3 3 0 5 -7 5 -7
0 -9 5 -6 10 7 12 4 12 -13 1z"/>
<path d="M6740 8249 c0 -5 5 -7 10 -4 6 3 17 -1 26 -9 15 -16 34 -13 34 4 0 5
-7 7 -15 4 -8 -4 -15 -1 -15 5 0 6 -9 11 -20 11 -11 0 -20 -5 -20 -11z"/>
<path d="M6635 8233 c11 -3 24 -10 28 -17 6 -7 7 -6 4 4 -2 8 -14 16 -28 17
-19 1 -20 1 -4 -4z"/>
<path d="M6830 8229 c0 -9 -7 -22 -15 -29 -8 -7 -15 -18 -15 -24 0 -6 5 -3 11
7 5 9 17 17 24 17 17 0 19 9 5 30 -8 13 -10 13 -10 -1z"/>
<path d="M6755 8200 c3 -5 8 -10 11 -10 2 0 4 5 4 10 0 6 -5 10 -11 10 -5 0
-7 -4 -4 -10z"/>
<path d="M6900 8190 c12 -9 10 -10 -12 -6 -16 4 -28 2 -28 -4 0 -5 14 -10 31
-10 31 0 37 20 8 28 -11 3 -11 1 1 -8z"/>
<path d="M6770 8163 c-8 -10 -11 -15 -6 -11 4 4 17 -2 29 -13 11 -10 28 -19
36 -19 10 1 7 6 -8 14 -14 8 -28 22 -31 31 -5 16 -7 16 -20 -2z"/>
<path d="M6952 8154 c10 -10 20 -15 24 -12 3 4 -5 12 -18 18 -22 12 -22 12 -6
-6z"/>
<path d="M7010 8160 c0 -5 7 -10 16 -10 8 0 12 5 9 10 -3 6 -10 10 -16 10 -5
0 -9 -4 -9 -10z"/>
<path d="M6710 8122 c0 -12 3 -12 15 -2 8 7 15 13 15 15 0 1 -7 2 -15 2 -8 0
-15 -7 -15 -15z"/>
<path d="M7039 8066 c-23 -17 -31 -46 -14 -46 8 0 15 9 15 21 0 11 5 17 10 14
6 -3 10 -17 10 -30 0 -18 4 -22 20 -18 24 6 27 23 4 23 -8 0 -12 5 -9 10 3 6
0 16 -7 24 -11 10 -18 11 -29 2z"/>
<path d="M6890 8055 c-7 -9 -8 -15 -2 -15 5 0 12 7 16 15 3 8 4 15 2 15 -2 0
-9 -7 -16 -15z"/>
<path d="M7481 8023 c7 -12 15 -20 18 -17 3 2 -3 12 -13 22 -17 16 -18 16 -5
-5z"/>
<path d="M7210 8016 c0 -8 4 -17 9 -20 5 -4 7 3 4 14 -6 23 -13 26 -13 6z"/>
<path d="M7172 7958 c-16 -22 -22 -52 -12 -68 6 -9 10 -11 10 -3 0 7 6 10 13
7 8 -3 13 5 15 21 1 14 -3 25 -9 25 -6 0 -9 7 -5 15 7 18 2 19 -12 3z"/>
<path d="M5580 7946 c0 -8 4 -17 9 -20 5 -4 7 3 4 14 -6 23 -13 26 -13 6z"/>
<path d="M7570 7936 c0 -2 7 -7 16 -10 8 -3 12 -2 9 4 -6 10 -25 14 -25 6z"/>
<path d="M7570 7900 c0 -5 5 -10 11 -10 6 0 9 -7 5 -15 -3 -8 -1 -15 3 -15 15
0 18 24 5 37 -15 16 -24 17 -24 3z"/>
<path d="M7135 7840 c-3 -5 -2 -10 4 -10 5 0 13 5 16 10 3 6 2 10 -4 10 -5 0
-13 -4 -16 -10z"/>
<path d="M7166 7832 c-3 -5 4 -17 17 -25 21 -14 23 -13 25 6 1 16 -1 18 -7 8
-7 -11 -11 -10 -18 4 -6 10 -13 13 -17 7z"/>
<path d="M7260 7710 c0 -5 5 -10 10 -10 6 0 10 5 10 10 0 6 -4 10 -10 10 -5 0
-10 -4 -10 -10z"/>
<path d="M7530 7640 c0 -5 5 -10 11 -10 5 0 7 5 4 10 -3 6 -8 10 -11 10 -2 0
-4 -4 -4 -10z"/>
<path d="M7220 7530 c0 -5 5 -10 10 -10 6 0 10 5 10 10 0 6 -4 10 -10 10 -5 0
-10 -4 -10 -10z"/>
<path d="M6230 7379 c-72 -12 -150 -38 -150 -50 0 -5 -7 -9 -15 -9 -9 0 -38
-12 -65 -26 -42 -22 -48 -29 -38 -41 10 -13 14 -13 25 3 20 28 15 11 -12 -44
-14 -28 -25 -52 -25 -55 0 -3 30 -3 68 0 211 17 640 -103 865 -244 34 -21 49
-20 28 3 -4 5 -14 32 -21 59 -31 122 -134 258 -245 325 -38 22 -93 42 -159 58
-122 29 -183 34 -256 21z"/>
<path d="M4286 7254 c-121 -19 -201 -40 -261 -69 -137 -66 -355 -333 -405
-494 -11 -35 -20 -66 -20 -69 0 -3 16 10 37 29 37 35 37 32 -4 -33 -25 -41
-24 -44 9 -27 15 8 19 8 14 0 -13 -21 7 -11 51 25 24 19 41 39 38 44 -3 5 0
12 6 16 8 4 9 3 5 -4 -11 -18 1 -14 22 6 40 38 73 62 84 62 6 0 19 6 27 13 51
43 285 174 421 235 75 34 296 100 362 109 21 3 35 9 32 14 -3 5 0 9 6 9 6 0
13 -6 16 -14 5 -13 63 -41 70 -34 8 9 -58 128 -75 137 -13 8 -21 8 -21 2 0 -6
9 -15 20 -21 11 -6 20 -16 20 -22 0 -6 -13 3 -30 20 -16 18 -30 27 -30 20 0
-6 -9 -3 -20 7 -14 13 -20 14 -20 5 0 -9 -9 -5 -25 10 -20 19 -41 25 -112 31
-112 10 -111 10 -217 -7z m472 -135 c-3 -8 -7 -3 -11 10 -4 17 -3 21 5 13 5
-5 8 -16 6 -23z m-1048 -484 c-13 -14 -28 -25 -34 -25 -6 0 3 11 19 25 39 31
45 32 15 0z"/>
<path d="M5956 7232 c-10 -17 -26 -62 -21 -62 7 0 37 62 32 67 -3 2 -8 0 -11
-5z"/>
<path d="M5906 7205 c-3 -8 -1 -15 4 -15 6 0 10 7 10 15 0 8 -2 15 -4 15 -2 0
-6 -7 -10 -15z"/>
<path d="M4780 7195 c0 -16 54 -124 60 -120 17 11 -22 110 -47 119 -7 3 -13 4
-13 1z"/>
<path d="M6814 6928 c16 -13 54 -42 84 -66 29 -24 55 -42 58 -40 8 8 -73 76
-121 102 -45 24 -47 25 -21 4z"/>
<path d="M7270 6899 c0 -5 5 -7 10 -4 6 3 10 8 10 11 0 2 -4 4 -10 4 -5 0 -10
-5 -10 -11z"/>
<path d="M3693 6578 c-40 -40 -76 -77 -80 -83 -4 -5 30 26 75 70 45 44 82 81
82 82 0 7 -10 -2 -77 -69z"/>
<path d="M3605 6555 c-14 -13 -25 -30 -25 -37 0 -6 16 3 35 22 19 19 35 35 35
37 0 11 -25 -1 -45 -22z"/>
<path d="M2085 6543 c2 -10 4 -24 4 -30 1 -7 5 -13 9 -13 5 0 7 14 4 30 -2 17
-8 30 -12 30 -5 0 -7 -8 -5 -17z"/>
<path d="M2101 6474 c0 -11 3 -14 6 -6 3 7 2 16 -1 19 -3 4 -6 -2 -5 -13z"/>
<path d="M6325 6460 c-86 -13 -194 -56 -258 -104 -44 -33 -108 -121 -101 -140
6 -16 24 -22 24 -8 0 5 16 27 36 51 68 78 198 125 343 122 125 -2 220 -35 338
-116 44 -31 64 -40 72 -32 34 34 -19 112 -109 157 -120 60 -243 85 -345 70z"/>
<path d="M6118 6297 c-35 -16 -67 -46 -85 -80 -21 -41 -27 -152 -13 -234 14
-86 69 -205 104 -228 35 -23 85 -25 119 -6 36 21 73 100 81 174 7 61 4 64 -57
57 -23 -2 -47 18 -47 40 0 24 32 50 63 50 22 0 27 5 27 24 0 41 -76 179 -108
199 -34 19 -46 20 -84 4z"/>
<path d="M4338 6250 c-173 -21 -327 -99 -457 -232 -75 -76 -83 -100 -48 -135
l25 -25 39 53 c89 121 236 219 371 248 118 25 307 8 380 -35 112 -64 113 -65
97 -41 -27 41 -117 110 -174 133 -31 13 -50 24 -43 24 7 0 10 5 7 10 -7 11
-98 11 -197 0z"/>
<path d="M4563 6243 c9 -2 25 -2 35 0 9 3 1 5 -18 5 -19 0 -27 -2 -17 -5z"/>
<path d="M4660 6220 c8 -5 20 -10 25 -10 6 0 3 5 -5 10 -8 5 -19 10 -25 10 -5
0 -3 -5 5 -10z"/>
<path d="M7226 6090 c-25 -27 -46 -53 -46 -57 0 -4 13 7 28 25 15 18 41 43 57
57 17 13 25 24 19 25 -6 0 -32 -22 -58 -50z"/>
<path d="M4260 6087 c-59 -32 -73 -44 -90 -78 -82 -158 -14 -451 117 -505 42
-18 79 -18 135 2 60 20 79 58 86 171 l5 83 -32 0 c-42 0 -71 16 -71 38 0 27
20 42 57 42 34 0 34 0 27 38 -9 53 -48 132 -86 176 -27 31 -41 39 -78 42 -28
3 -55 0 -70 -9z"/>
<path d="M7702 5990 c7 -11 16 -20 21 -20 4 0 3 9 -3 20 -6 11 -15 20 -20 20
-6 0 -5 -9 2 -20z"/>
<path d="M7766 5907 c3 -10 9 -15 12 -12 3 3 0 11 -7 18 -10 9 -11 8 -5 -6z"/>
<path d="M7810 5830 c0 -8 5 -22 10 -30 9 -13 10 -13 10 0 0 8 -5 22 -10 30
-9 13 -10 13 -10 0z"/>
<path d="M7846 5735 c3 -11 10 -42 15 -69 5 -27 12 -52 15 -55 12 -10 -6 79
-21 112 -9 18 -13 23 -9 12z"/>
<path d="M7887 5515 c3 -49 7 -92 9 -94 8 -8 3 105 -6 144 -6 28 -7 14 -3 -50z"/>
<path d="M2615 5416 c-175 -57 -241 -127 -295 -316 -31 -107 -39 -310 -15
-416 31 -144 134 -301 263 -405 37 -30 69 -56 72 -59 49 -51 321 -176 402
-184 24 -2 72 -9 109 -15 55 -9 107 -8 179 3 94 15 275 100 388 183 24 17 24
16 144 -110 166 -176 290 -267 536 -392 l92 -47 -5 -121 c-14 -301 -47 -600
-96 -872 -36 -197 -38 -203 -84 -260 -34 -41 -38 -43 -103 -48 -64 -5 -96 -16
-219 -80 -24 -12 -43 -25 -43 -29 0 -5 -5 -8 -10 -8 -18 0 -139 -114 -186
-176 -15 -20 -33 -31 -48 -31 -54 0 -197 -76 -408 -216 -92 -61 -170 -118
-173 -125 -3 -8 10 -3 28 11 37 28 65 44 195 114 48 25 111 61 140 80 29 18
54 33 57 33 2 0 30 15 62 34 98 56 110 55 226 -17 123 -76 152 -90 166 -86 6
2 -5 13 -26 23 -108 56 -182 104 -197 130 -24 41 -19 46 171 183 62 45 120 89
129 97 8 9 18 16 22 16 11 -1 72 -59 72 -68 0 -4 -37 -32 -82 -61 -46 -30
-112 -77 -148 -104 -36 -28 -67 -52 -69 -54 -2 -2 -2 -6 2 -9 6 -6 18 2 58 38
10 10 23 18 28 18 5 0 14 7 21 15 19 23 203 145 218 145 6 0 12 -4 12 -9 0 -5
9 -13 20 -16 11 -3 26 -12 33 -19 7 -7 48 -30 92 -50 44 -20 88 -41 97 -46 10
-6 27 -10 38 -10 11 0 20 -3 20 -7 0 -4 -33 -39 -73 -78 -80 -77 -186 -201
-147 -170 14 11 54 51 90 90 36 38 88 90 117 115 l51 45 -36 11 c-52 15 -124
52 -226 113 l-88 53 44 47 c100 104 124 142 152 241 53 187 132 616 128 698
-1 23 1 42 5 42 5 0 8 30 9 68 0 54 11 282 13 289 3 7 36 -7 37 -15 3 -24 6
-27 12 -10 6 15 15 14 102 -8 52 -13 104 -24 115 -24 17 0 18 -2 5 -11 -12 -8
-9 -9 12 -5 15 4 47 3 70 -1 38 -6 40 -7 18 -14 -24 -7 -24 -7 5 -9 17 -2 49
-2 73 0 23 1 49 -3 57 -10 8 -6 18 -10 22 -7 11 6 63 -50 54 -59 -3 -4 -1 -4
5 -1 6 4 31 -15 54 -41 24 -26 39 -40 35 -32 -8 13 -6 13 8 1 9 -7 14 -17 11
-22 -3 -5 3 -6 12 -2 11 4 15 3 10 -5 -3 -6 2 -13 11 -16 10 -4 29 -16 43 -27
l25 -21 -30 18 c-24 14 -27 14 -17 2 10 -13 10 -17 0 -22 -7 -3 -2 -3 11 0 18
5 22 3 15 -7 -6 -12 -5 -12 9 0 14 11 20 11 33 0 8 -7 13 -21 11 -31 -4 -15
-2 -16 14 -8 14 8 25 6 44 -6 24 -16 37 -32 13 -18 -7 4 -8 3 -4 -4 4 -6 14
-8 23 -5 11 4 14 3 9 -5 -4 -7 -2 -10 6 -7 7 3 25 -6 39 -19 15 -14 29 -23 31
-20 9 8 88 -33 80 -41 -4 -5 -2 -5 4 -2 14 8 69 -8 67 -19 -1 -10 13 -11 155
-16 l93 -3 -6 -48 c-10 -73 -8 -281 4 -381 12 -101 38 -164 84 -201 18 -14 38
-30 45 -36 7 -6 28 -17 47 -25 19 -8 35 -19 35 -25 0 -21 19 2 25 32 6 26 9
28 22 17 9 -7 18 -11 20 -10 2 2 42 -15 89 -38 47 -23 88 -40 90 -37 2 2 -38
25 -88 52 -116 60 -118 61 -118 96 0 29 17 35 46 17 6 -4 30 -10 53 -14 23 -4
44 -11 47 -15 3 -5 13 -9 23 -9 26 0 162 -69 194 -98 15 -14 27 -22 27 -18 0
41 -119 113 -263 158 -105 33 -179 40 -265 25 l-43 -7 -20 46 c-26 62 -31 98
-30 229 1 159 63 702 94 819 13 49 13 49 117 104 92 48 296 174 310 191 3 3
25 22 50 42 52 42 167 159 234 239 67 79 152 209 216 331 l55 105 40 -11 c61
-18 181 -18 270 0 150 30 297 123 386 245 52 71 92 140 85 147 -2 3 -12 -10
-22 -29 -69 -133 -210 -260 -350 -315 -64 -25 -80 -27 -225 -28 -119 0 -160 3
-173 14 -9 8 -18 12 -20 10 -1 -2 -26 -49 -55 -104 -29 -55 -76 -134 -104
-175 -28 -41 -65 -95 -81 -120 -68 -102 -269 -285 -451 -411 -75 -53 -281
-165 -354 -194 -75 -29 -226 -67 -361 -91 -145 -26 -523 -25 -582 1 -10 4 -25
5 -33 2 -8 -4 -17 -2 -20 3 -4 6 -11 10 -16 10 -6 0 -8 -4 -5 -9 3 -5 -22 -2
-57 5 -34 8 -107 23 -163 34 -125 25 -204 48 -204 60 0 4 -42 29 -92 54 -260
130 -386 221 -590 430 l-128 129 -22 -19 c-12 -10 -34 -31 -49 -46 -14 -15
-29 -24 -33 -21 -11 11 -45 -28 -38 -45 5 -15 4 -15 -11 -3 -15 12 -17 11 -17
-2 0 -11 -5 -14 -17 -10 -10 4 -14 2 -9 -5 3 -6 -3 -14 -16 -17 -13 -4 -42
-16 -66 -27 -24 -10 -61 -20 -83 -21 -21 -1 -39 -6 -39 -12 0 -5 -5 -3 -10 5
-9 13 -11 13 -20 0 -9 -13 -10 -13 -10 0 0 10 -3 11 -8 4 -4 -6 -23 -14 -42
-17 -25 -5 -31 -4 -20 3 11 7 1 10 -36 10 -169 0 -402 84 -560 201 -206 152
-290 312 -301 574 -9 208 46 394 144 486 67 62 166 101 283 109 l95 7 -80 1
c-59 1 -99 -5 -150 -22z m2565 -1931 c17 -9 30 -19 30 -23 0 -4 14 -16 30 -26
18 -10 28 -22 24 -29 -4 -7 -4 -9 0 -5 5 4 31 -11 58 -33 27 -21 53 -39 57
-39 4 0 22 -15 41 -32 18 -18 30 -26 25 -18 -5 9 5 6 26 -8 18 -13 55 -34 81
-47 41 -22 69 -45 54 -45 -13 0 -56 24 -56 32 0 4 -8 8 -17 8 -35 0 -243 130
-243 152 0 5 -4 7 -8 4 -4 -2 -39 24 -77 59 -71 65 -77 77 -25 50z m465 -306
c-4 -6 -1 -10 6 -8 30 4 70 -1 65 -9 -5 -8 165 -7 200 2 19 5 24 2 24 -13 0
-10 -7 -22 -16 -25 -38 -15 -173 0 -259 29 -40 13 -59 35 -30 35 9 0 13 -5 10
-11z"/>
<path d="M5835 5426 c-11 -7 -53 -30 -92 -51 -68 -34 -90 -55 -60 -55 7 0 30
9 52 20 22 11 44 20 50 20 20 1 98 80 78 80 -5 0 -17 -6 -28 -14z"/>
<path d="M7885 5285 c-4 -42 -5 -79 -2 -81 2 -3 8 29 12 71 4 42 5 79 2 81 -2
3 -8 -29 -12 -71z"/>
<path d="M7555 5300 c3 -5 8 -10 11 -10 2 0 4 5 4 10 0 6 -5 10 -11 10 -5 0
-7 -4 -4 -10z"/>
<path d="M7587 5284 c7 -3 9 -12 6 -21 -4 -10 -2 -14 4 -10 6 4 16 -6 23 -23
11 -27 60 -70 60 -52 0 10 -60 94 -75 104 -5 4 -14 7 -20 7 -5 0 -5 -3 2 -5z"/>
<path d="M3452 5208 c-6 -23 -9 -44 -7 -46 2 -2 9 15 15 38 6 23 9 44 7 46 -2
3 -9 -14 -15 -38z"/>
<path d="M7861 5143 c-1 -6 -4 -20 -7 -30 -5 -17 -5 -17 6 0 6 10 9 23 6 30
-3 9 -5 9 -5 0z"/>
<path d="M7825 5039 c-4 -6 -5 -12 -2 -15 2 -3 7 2 10 11 7 17 1 20 -8 4z"/>
<path d="M5040 4760 c0 -6 7 -10 15 -10 8 0 15 2 15 4 0 2 -7 6 -15 10 -8 3
-15 1 -15 -4z"/>
<path d="M3282 4610 c0 -19 2 -27 5 -17 2 9 2 25 0 35 -3 9 -5 1 -5 -18z"/>
<path d="M5874 4603 c-12 -12 -13 -18 -4 -21 7 -3 22 5 33 17 18 18 19 21 5
21 -9 0 -24 -8 -34 -17z"/>
<path d="M3475 4380 c3 -5 8 -10 11 -10 2 0 4 5 4 10 0 6 -5 10 -11 10 -5 0
-7 -4 -4 -10z"/>
<path d="M3560 4326 c0 -2 9 -6 20 -9 11 -3 18 -1 14 4 -5 9 -34 13 -34 5z"/>
<path d="M5377 3230 c-22 -22 -8 -34 25 -21 21 9 21 10 3 11 -15 0 -17 2 -6 9
7 5 9 11 5 13 -5 3 -17 -3 -27 -12z"/>
<path d="M5530 3130 c8 -5 20 -10 25 -10 6 0 3 5 -5 10 -8 5 -19 10 -25 10 -5
0 -3 -5 5 -10z"/>
<path d="M5830 3060 c12 -8 12 -10 1 -10 -8 0 -12 -2 -9 -5 3 -3 13 -2 22 1
14 5 15 9 4 15 -7 5 -17 9 -23 9 -5 0 -3 -5 5 -10z"/>
<path d="M4595 2910 c3 -5 14 -10 23 -10 15 0 15 2 2 10 -20 13 -33 13 -25 0z"/>
<path d="M4705 2860 c3 -5 8 -10 11 -10 2 0 4 5 4 10 0 6 -5 10 -11 10 -5 0
-7 -4 -4 -10z"/>
<path d="M5869 2844 c-12 -14 -11 -16 5 -13 11 2 21 10 24 17 5 17 -13 15 -29
-4z"/>
<path d="M5760 2800 c0 -5 7 -7 15 -4 8 4 15 8 15 10 0 2 -7 4 -15 4 -8 0 -15
-4 -15 -10z"/>
<path d="M6604 2319 c-5 -9 -1 -11 14 -7 12 4 20 2 16 -3 -3 -5 2 -9 11 -9 26
0 88 -32 104 -53 7 -10 20 -16 28 -13 8 4 11 1 8 -5 -8 -12 43 -68 62 -69 7 0
32 -13 56 -30 25 -16 50 -30 56 -30 6 0 11 -4 11 -8 0 -5 12 -15 28 -23 15 -8
29 -16 32 -19 13 -13 52 -31 57 -26 7 7 -23 36 -37 36 -6 0 -20 8 -31 19 -11
10 -37 27 -57 37 -20 11 -39 22 -40 27 -2 4 -8 5 -13 1 -5 -3 -9 0 -9 5 0 6
-6 11 -14 11 -8 0 -16 4 -18 8 -1 4 -18 18 -36 31 -18 13 -31 25 -28 28 9 9
-58 63 -72 58 -7 -3 -10 -1 -7 5 8 12 -21 26 -71 35 -29 4 -44 3 -50 -6z m93
-15 c-3 -3 -12 -4 -19 -1 -8 3 -5 6 6 6 11 1 17 -2 13 -5z"/>
<path d="M6126 2291 c-4 -7 -5 -15 -2 -18 9 -9 19 4 14 18 -4 11 -6 11 -12 0z"/>
<path d="M6460 2290 c20 -13 33 -13 25 0 -3 6 -14 10 -23 10 -15 0 -15 -2 -2
-10z"/>
<path d="M6547 2238 c-4 -18 -9 -44 -13 -58 -11 -40 12 -11 26 33 8 25 9 42 2
49 -6 6 -11 -3 -15 -24z"/>
<path d="M5990 2154 c-154 -102 -222 -131 -340 -145 -58 -7 -118 -13 -133 -14
-16 -1 -32 -8 -37 -14 -6 -10 -62 -12 -251 -9 -134 3 -252 8 -261 12 -11 5
-18 4 -18 -2 0 -13 60 -21 215 -28 72 -3 156 -7 188 -9 31 -1 76 2 100 7 23 6
49 10 57 10 57 -2 236 39 286 66 11 6 37 19 59 30 102 49 253 153 223 152 -2
0 -41 -25 -88 -56z"/>
<path d="M6195 2150 c10 -11 20 -20 23 -20 3 0 -3 9 -13 20 -10 11 -20 20 -23
20 -3 0 3 -9 13 -20z"/>
<path d="M6494 2094 c-35 -75 -83 -146 -95 -139 -5 3 -6 0 -4 -7 3 -8 -16 -30
-47 -53 -29 -22 -54 -43 -56 -47 -2 -5 -10 -8 -17 -8 -8 0 -20 -6 -27 -13 -11
-11 -84 -62 -164 -114 -15 -10 -13 -10 11 0 36 14 190 116 262 172 56 44 120
132 153 209 30 70 15 70 -16 0z"/>
<path d="M6315 2030 c33 -33 64 -60 70 -60 12 0 -106 119 -120 120 -5 0 17
-27 50 -60z"/>
<path d="M6135 2030 c22 -25 49 -56 60 -70 11 -14 29 -32 40 -40 19 -14 19
-14 5 5 -8 11 -21 26 -27 33 -7 7 -16 18 -20 25 -5 7 -28 30 -53 52 l-44 40
39 -45z"/>
<path d="M4648 2033 c7 -3 16 -2 19 1 4 3 -2 6 -13 5 -11 0 -14 -3 -6 -6z"/>
<path d="M4694 2023 c10 -3 47 -13 82 -23 35 -9 64 -14 64 -9 0 8 -128 40
-152 38 -7 -1 -5 -3 6 -6z"/>
<path d="M7102 2009 c2 -6 7 -10 11 -9 4 0 15 -6 23 -15 20 -19 34 -19 34 1 0
8 -5 12 -10 9 -6 -3 -17 1 -26 9 -18 18 -37 21 -32 5z"/>
<path d="M4850 1991 c0 -6 7 -11 16 -11 11 0 14 -6 9 -22 l-7 -23 17 23 c11
16 23 21 36 17 11 -4 19 -2 19 4 0 6 -13 11 -29 11 -16 0 -36 3 -45 6 -9 3
-16 1 -16 -5z"/>
<path d="M7180 1974 c0 -7 27 -34 34 -34 13 0 5 16 -14 28 -11 7 -20 10 -20 6z"/>
<path d="M5722 1935 c0 -5 6 -26 13 -45 7 -19 14 -28 14 -20 0 8 -6 29 -14 45
-7 17 -13 26 -13 20z"/>
<path d="M7230 1932 c0 -5 12 -14 26 -21 20 -9 25 -9 21 1 -2 7 -10 12 -16 11
-6 -2 -11 2 -11 7 0 6 -4 10 -10 10 -5 0 -10 -4 -10 -8z"/>
<path d="M4857 1923 c-17 -28 -34 -83 -26 -83 5 0 9 6 9 13 0 6 7 25 15 41 13
25 15 51 2 29z"/>
<path d="M6260 1890 c0 -5 5 -10 11 -10 5 0 7 5 4 10 -3 6 -8 10 -11 10 -2 0
-4 -4 -4 -10z"/>
<path d="M5343 1820 c0 -25 2 -35 4 -22 2 12 2 32 0 45 -2 12 -4 2 -4 -23z"/>
<path d="M5941 1855 c0 -5 11 -32 24 -60 14 -27 28 -67 31 -87 4 -21 10 -35
14 -33 5 3 3 21 -3 41 -13 43 -66 154 -66 139z"/>
<path d="M4055 1830 c7 -11 45 -20 45 -10 0 4 -11 10 -25 12 -13 3 -22 2 -20
-2z"/>
<path d="M4796 1784 c-9 -20 -14 -39 -12 -42 3 -3 13 12 21 33 21 48 14 56 -9
9z"/>
<path d="M4239 1754 c19 -8 39 -13 45 -10 13 4 -39 26 -62 26 -9 -1 -2 -7 17
-16z"/>
<path d="M5330 1718 c-3 -26 -1 -43 3 -39 5 5 7 26 5 47 l-3 39 -5 -47z"/>
<path d="M4320 1728 c23 -9 87 -29 205 -64 59 -18 167 -43 210 -49 17 -2 30
-4 30 -5 0 -1 11 -3 25 -5 14 -2 54 -9 90 -15 36 -7 99 -14 140 -16 63 -2 55
0 -55 16 -71 10 -152 23 -180 29 -27 6 -84 18 -125 26 -41 9 -134 34 -207 55
-125 38 -188 51 -133 28z"/>
<path d="M2975 1585 c-49 -35 -95 -68 -102 -74 -7 -6 -16 -11 -20 -11 -4 0
-24 -15 -43 -33 -19 -19 -41 -32 -48 -29 -6 2 -12 -1 -12 -6 0 -6 -16 -20 -36
-32 -19 -12 -33 -24 -30 -27 5 -6 120 66 124 78 2 5 8 9 13 9 5 0 20 10 33 21
14 12 34 27 44 33 68 39 191 137 171 136 -2 0 -44 -29 -94 -65z"/>
<path d="M5580 1590 c-53 -7 -52 -7 27 -8 46 -1 85 2 88 8 7 11 -26 11 -115 0z"/>
<path d="M5320 1570 c-26 -5 -1 -6 60 -3 58 3 107 7 109 9 7 7 -121 1 -169 -6z"/>
<path d="M5143 1563 c15 -2 37 -2 50 0 12 2 0 4 -28 4 -27 0 -38 -2 -22 -4z"/>
<path d="M7801 1547 c2 -1 13 -9 24 -17 19 -14 19 -14 6 3 -7 9 -18 17 -24 17
-6 0 -8 -1 -6 -3z"/>
<path d="M7865 1500 c9 -15 65 -52 65 -43 -1 4 -17 18 -36 30 -19 13 -32 19
-29 13z"/>
<path d="M7940 1445 c0 -9 80 -58 86 -52 3 3 -12 17 -33 31 -36 25 -53 32 -53
21z"/>
<path d="M8040 1380 c0 -5 9 -14 20 -20 11 -6 20 -7 20 -3 0 5 -9 14 -20 21
-11 7 -20 8 -20 2z"/>
<path d="M8090 1346 c0 -2 8 -10 18 -17 15 -13 16 -12 3 4 -13 16 -21 21 -21
13z"/>
<path d="M2599 1317 c-14 -12 -38 -31 -53 -42 -42 -30 -136 -107 -136 -111 0
-15 37 8 83 51 38 35 136 105 147 105 5 0 10 5 10 10 0 17 -23 11 -51 -13z"/>
<path d="M8145 1300 c3 -5 8 -10 11 -10 2 0 4 5 4 10 0 6 -5 10 -11 10 -5 0
-7 -4 -4 -10z"/>
<path d="M8220 1262 c0 -4 10 -18 21 -32 15 -18 19 -20 15 -7 -3 10 -6 22 -6
27 0 4 -7 10 -15 14 -8 3 -15 2 -15 -2z"/>
<path d="M8270 1195 c0 -12 48 -57 52 -49 3 5 -8 19 -23 32 -16 13 -29 21 -29
17z"/>
<path d="M2361 1125 c-36 -35 -22 -39 17 -4 18 16 27 29 20 28 -7 0 -24 -11
-37 -24z"/>
<path d="M8330 1133 c0 -5 16 -23 35 -42 19 -19 35 -29 35 -22 0 6 -4 11 -8
11 -4 0 -16 14 -25 30 -17 28 -37 40 -37 23z"/>
<path d="M2290 1064 c-20 -20 -26 -32 -15 -25 36 20 57 40 53 51 -2 6 -19 -6
-38 -26z"/>
<path d="M8410 1041 c0 -5 5 -13 10 -16 6 -3 10 -2 10 4 0 5 -4 13 -10 16 -5
3 -10 2 -10 -4z"/>
<path d="M2217 996 c-3 -8 -31 -33 -62 -56 -60 -45 -115 -119 -115 -157 0 -23
-6 -32 -134 -208 -101 -139 -159 -228 -258 -391 -117 -192 -113 -184 -90 -184
13 0 26 17 43 52 13 29 27 55 32 56 4 2 7 8 7 13 0 5 30 58 67 117 108 174
135 216 147 227 6 6 27 36 46 68 19 31 39 57 45 57 29 0 115 135 115 181 0 16
7 43 14 58 18 35 81 91 102 91 8 0 13 4 9 9 -3 6 9 26 26 45 17 20 27 36 21
36 -5 0 -12 -6 -15 -14z"/>
<path d="M8228 989 c-19 -11 -24 -29 -8 -29 5 0 14 9 20 20 12 23 12 23 -12 9z"/>
<path d="M2247 744 c-3 -3 3 -29 14 -57 18 -44 28 -68 69 -162 5 -11 14 -38
21 -60 16 -55 26 -63 40 -31 11 23 10 29 -2 37 -9 5 -10 9 -2 9 7 0 16 -7 21
-17 8 -13 12 -14 23 -3 12 11 10 18 -14 43 -15 17 -35 44 -42 61 -8 17 -30 51
-49 76 -19 25 -35 54 -35 65 -1 17 -3 17 -11 5 -8 -13 -10 -12 -11 5 -1 11 -1
23 0 28 1 9 -13 9 -22 1z"/>
<path d="M2106 708 c34 -39 44 -50 44 -43 0 11 -44 65 -53 65 -6 0 -2 -10 9
-22z"/>
<path d="M8211 613 c0 -28 2 -54 7 -57 4 -2 6 14 4 37 -5 68 -10 76 -11 20z"/>
<path d="M2171 610 c13 -25 29 -50 34 -57 6 -6 33 -39 60 -74 63 -78 102 -119
114 -119 14 0 21 29 9 36 -7 4 -8 3 -4 -4 4 -7 2 -12 -4 -12 -14 0 -28 16
-123 140 -97 128 -117 148 -86 90z"/>
<path d="M8081 574 c0 -11 3 -14 6 -6 3 7 2 16 -1 19 -3 4 -6 -2 -5 -13z"/>
<path d="M8192 520 c0 -14 2 -19 5 -12 2 6 2 18 0 25 -3 6 -5 1 -5 -13z"/>
<path d="M8780 446 c0 -2 8 -10 18 -17 15 -13 16 -12 3 4 -13 16 -21 21 -21
13z"/>
<path d="M2512 350 c-8 -13 -8 -20 -1 -20 5 0 7 -5 4 -11 -4 -6 -13 -8 -21 -5
-18 7 -18 3 5 -43 20 -39 14 -61 -17 -61 -7 0 -10 -5 -6 -11 3 -6 17 -8 30 -5
13 4 24 3 24 -1 0 -10 -42 -38 -52 -35 -8 2 1 -27 13 -43 4 -6 6 -32 4 -59 -2
-30 0 -43 6 -35 7 11 13 11 39 -4 26 -16 49 -18 149 -16 94 3 118 6 114 17 -8
18 -66 77 -75 74 -13 -4 -9 16 5 22 6 3 -10 3 -37 0 -33 -4 -46 -2 -41 5 3 6
15 11 26 11 10 0 19 5 19 10 0 6 -7 10 -15 10 -8 0 -12 6 -9 14 3 7 -9 25 -25
39 -17 14 -31 30 -31 34 0 5 -13 22 -29 39 -15 16 -31 39 -36 52 -4 14 -12 21
-20 18 -9 -3 -12 0 -8 10 8 20 0 17 -15 -6z m31 -37 c-7 -2 -13 -11 -13 -19 0
-8 -4 -14 -10 -14 -5 0 -10 4 -10 8 0 12 22 32 35 31 5 0 4 -3 -2 -6z m35
-113 c-2 -7 -10 1 -17 16 -12 27 -11 28 4 12 10 -9 16 -21 13 -28z m-48 -69
c0 -17 -4 -33 -10 -36 -6 -4 -10 8 -10 29 0 20 5 36 10 36 6 0 10 -13 10 -29z
m40 8 c0 -6 -4 -7 -10 -4 -5 3 -10 11 -10 16 0 6 5 7 10 4 6 -3 10 -11 10 -16z
m-20 -95 c0 -8 -4 -12 -10 -9 -5 3 -10 10 -10 16 0 5 5 9 10 9 6 0 10 -7 10
-16z"/>
<path d="M8830 350 c0 -5 5 -10 11 -10 5 0 7 5 4 10 -3 6 -8 10 -11 10 -2 0
-4 -4 -4 -10z"/>
<path d="M8856 297 c3 -10 9 -15 12 -12 3 3 0 11 -7 18 -10 9 -11 8 -5 -6z"/>
<path d="M8893 252 c2 -12 6 -24 10 -28 3 -4 4 4 2 16 -6 30 -16 40 -12 12z"/>
<path d="M8930 175 c7 -9 15 -13 17 -11 7 7 -7 26 -19 26 -6 0 -6 -6 2 -15z"/>
<path d="M7975 159 c-4 -6 -5 -12 -2 -15 2 -3 7 2 10 11 7 17 1 20 -8 4z"/>
<path d="M8135 160 c-3 -5 -1 -10 4 -10 6 0 11 5 11 10 0 6 -2 10 -4 10 -3 0
-8 -4 -11 -10z"/>
<path d="M8940 140 c0 -6 7 -10 15 -10 8 0 15 2 15 4 0 2 -7 6 -15 10 -8 3
-15 1 -15 -4z"/>
<path d="M8101 124 c0 -11 3 -14 6 -6 3 7 2 16 -1 19 -3 4 -6 -2 -5 -13z"/>
<path d="M8970 105 c0 -8 4 -15 10 -15 5 0 7 7 4 15 -4 8 -8 15 -10 15 -2 0
-4 -7 -4 -15z"/>
<path d="M7945 70 c-3 -5 -1 -10 4 -10 6 0 11 5 11 10 0 6 -2 10 -4 10 -3 0
-8 -4 -11 -10z"/>
</g>
</svg>
